Coordinates
version=1
nRows=26
nColumns=24
inDegrees=yes

Units are S.I. units (second, meters, Newtons, ...)
If the header above contains a line with 'inDegrees', this indicates whether rotational values are in degrees (yes) or radians (no).

endheader
time	pelvis_tilt	pelvis_list	pelvis_rotation	pelvis_tx	pelvis_ty	pelvis_tz	hip_flexion_r	hip_adduction_r	hip_rotation_r	knee_angle_r	ankle_angle_r	subtalar_angle_r	mtp_angle_r	hip_flexion_l	hip_adduction_l	hip_rotation_l	knee_angle_l	ankle_angle_l	subtalar_angle_l	mtp_angle_l	lumbar_extension	lumbar_bending	lumbar_rotation
      0.72000000	      7.28309004	     -0.28806275	     -0.18475667	      0.15498500	      0.58636324	     -0.03229025	     72.90641340	     -1.99721020	      2.48841919	   -106.47558751	     28.87156833	      0.00000000	      0.00000000	     74.17458781	     -1.81124632	     -0.12041534	   -108.20827550	     26.44853409	      0.00000000	      0.00000000	    -65.22277769	     -0.70240309	     -0.48084038
      0.73000000	      6.87403586	     -0.39674205	     -0.25389471	      0.15749105	      0.59030518	     -0.03218418	     72.58571304	     -1.90539348	      2.36896880	   -105.89543052	     29.25827032	      0.00000000	      0.00000000	     73.85930275	     -1.81676960	      0.05684700	   -107.69351731	     26.96621891	      0.00000000	      0.00000000	    -64.72220222	     -0.64723247	     -0.44031037
      0.74000000	      6.45090440	     -0.42093109	     -0.30671090	      0.15986193	      0.59461092	     -0.03213475	     72.27948870	     -1.89505579	      2.30340121	   -105.26198931	     29.33119646	      0.00000000	      0.00000000	     73.54936908	     -1.80373668	      0.11486610	   -107.08901748	     27.06438589	      0.00000000	      0.00000000	    -64.45978886	     -0.63476253	     -0.44104864
      0.75000000	      6.06413961	     -0.56341783	     -0.35301559	      0.16243732	      0.59891955	     -0.03205125	     71.87616975	     -1.79176459	      2.15266796	   -104.60515974	     29.69359326	      0.00000000	      0.00000000	     73.17306709	     -1.79421822	      0.34032810	   -106.51610678	     27.56398075	      0.00000000	      0.00000000	    -63.90981090	     -0.52554692	     -0.33626838
      0.76000000	      5.67372582	     -0.60285215	     -0.40185177	      0.16491243	      0.60360815	     -0.03199863	     71.47338137	     -1.72774441	      2.10469404	   -103.88912499	     29.79456285	      0.00000000	      0.00000000	     72.77078600	     -1.73639173	      0.45657737	   -105.84870551	     27.71054412	      0.00000000	      0.00000000	    -63.48855341	     -0.48975821	     -0.32561589
      0.77000000	      5.31654191	     -0.68278158	     -0.42834847	      0.16757322	      0.60829665	     -0.03193592	     71.02044351	     -1.66075415	      2.02104009	   -103.20678861	     30.02328746	      0.00000000	      0.00000000	     72.32233308	     -1.70015489	      0.61010664	   -105.20480634	     28.03746875	      0.00000000	      0.00000000	    -62.96626708	     -0.41426564	     -0.28727877
      0.78000000	      4.93923324	     -0.73523346	     -0.46870347	      0.17018588	      0.61326902	     -0.03189897	     70.55104246	     -1.59511261	      1.96938615	   -102.43395080	     30.16041842	      0.00000000	      0.00000000	     71.86077954	     -1.64003232	      0.74829633	   -104.48381940	     28.24232257	      0.00000000	      0.00000000	    -62.48237002	     -0.35658092	     -0.27178082
      0.79000000	      4.55112634	     -0.77531423	     -0.48991872	      0.17286696	      0.61838203	     -0.03184420	     70.08556732	     -1.54173297	      1.92864418	   -101.64587138	     30.25721297	      0.00000000	      0.00000000	     71.39122335	     -1.59688017	      0.85245113	   -103.73835345	     28.39684872	      0.00000000	      0.00000000	    -62.01559374	     -0.31483586	     -0.27952369
      0.80000000	      4.26187037	     -0.89473007	     -0.50780021	      0.17571035	      0.62358596	     -0.03180533	     69.47419020	     -1.45181752	      1.79392514	   -100.85115468	     30.53420695	      0.00000000	      0.00000000	     70.80499852	     -1.55207732	      1.06005065	   -103.00823361	     28.82097808	      0.00000000	      0.00000000	    -61.42168374	     -0.17080859	     -0.16950500
      0.81000000	      3.94384852	     -0.95811652	     -0.53087397	      0.17849185	      0.62897709	     -0.03170321	     68.89096053	     -1.35412562	      1.74513586	   -100.01227335	     30.60955663	      0.00000000	      0.00000000	     70.23655374	     -1.50512774	      1.20869645	   -102.21386577	     28.97651115	      0.00000000	      0.00000000	    -60.85175533	     -0.09544303	     -0.11132677
      0.82000000	      3.55459785	     -0.97928600	     -0.56260625	      0.18128091	      0.63448760	     -0.03162877	     68.37269054	     -1.28173410	      1.73188974	    -99.11918126	     30.61629689	      0.00000000	      0.00000000	     69.71595446	     -1.45455119	      1.29880244	   -101.35774269	     29.03015828	      0.00000000	      0.00000000	    -60.34017612	     -0.06634782	     -0.12853365
      0.83000000	      3.21730877	     -1.01201257	     -0.59694058	      0.18417081	      0.64016914	     -0.03154929	     67.77359220	     -1.19698332	      1.71697063	    -98.19930742	     30.64375232	      0.00000000	      0.00000000	     69.11305626	     -1.40687302	      1.40648574	   -100.47295467	     29.14419171	      0.00000000	      0.00000000	    -59.69686736	     -0.02046182	     -0.15030510
      0.84000000	      2.94626543	     -1.06174609	     -0.61870638	      0.18714176	      0.64589253	     -0.03141535	     67.10409681	     -1.10081223	      1.68062137	    -97.28618911	     30.69483252	      0.00000000	      0.00000000	     68.44410352	     -1.37647856	      1.53015733	    -99.60959093	     29.32665471	      0.00000000	      0.00000000	    -59.01544133	      0.05198691	     -0.12643358
      0.85000000	      2.64780631	     -1.10438178	     -0.63665998	      0.19011178	      0.65180664	     -0.03126026	     66.43712977	     -1.00429474	      1.65797102	    -96.30757793	     30.67560324	      0.00000000	      0.00000000	     67.77651286	     -1.35792655	      1.63307350	    -98.67749965	     29.39950429	      0.00000000	      0.00000000	    -58.38199109	      0.10796197	     -0.09331000
      0.86000000	      2.31514026	     -1.13088846	     -0.67245505	      0.19313169	      0.65786338	     -0.03116295	     65.78745890	     -0.91833746	      1.64699815	    -95.28440858	     30.61245248	      0.00000000	      0.00000000	     67.12314898	     -1.33822623	      1.71001917	    -97.69058196	     29.39928273	      0.00000000	      0.00000000	    -57.75753753	      0.14437470	     -0.08639840
      0.87000000	      1.99164785	     -1.15268777	     -0.70934496	      0.19622250	      0.66408247	     -0.03106013	     65.10433862	     -0.84020857	      1.65451842	    -94.21928888	     30.52514916	      0.00000000	      0.00000000	     66.43558864	     -1.33444423	      1.78009594	    -96.66518852	     29.37510441	      0.00000000	      0.00000000	    -57.08844282	      0.17517290	     -0.09261050
      0.88000000	      1.74340717	     -1.16994419	     -0.74850974	      0.19934009	      0.67042244	     -0.03087350	     64.33995321	     -0.73854181	      1.66130736	    -93.14359751	     30.42238207	      0.00000000	      0.00000000	     65.66696554	     -1.34123237	      1.83664084	    -95.62918682	     29.35576857	      0.00000000	      0.00000000	    -56.39290825	      0.20900786	     -0.06185380
      0.89000000	      1.49293612	     -1.17995437	     -0.79123436	      0.20249828	      0.67694409	     -0.03069705	     63.55269119	     -0.64324167	      1.68541467	    -92.01283576	     30.29638608	      0.00000000	      0.00000000	     64.87430759	     -1.35534509	      1.87557727	    -94.54174381	     29.29278271	      0.00000000	      0.00000000	    -55.73282079	      0.22823290	     -0.01602057
      0.90000000	      1.25335097	     -1.18011736	     -0.83656085	      0.20571302	      0.68362102	     -0.03053090	     62.73802658	     -0.55752110	      1.71629327	    -90.84465824	     30.15416809	      0.00000000	      0.00000000	     64.04822204	     -1.38087818	      1.88488767	    -93.41069633	     29.20381324	      0.00000000	      0.00000000	    -55.09989326	      0.23313606	      0.04433212
      0.91000000	      1.20099898	     -1.16249409	     -0.90040276	      0.20895837	      0.69070200	     -0.03034582	     61.69783354	     -0.45511306	      1.79931901	    -89.63879258	     30.01904282	      0.00000000	      0.00000000	     62.98912371	     -1.41129728	      1.87068673	    -92.23363819	     29.14253313	      0.00000000	      0.00000000	    -54.67071065	      0.19940069	      0.32681798
      0.92000000	      0.84279056	     -1.15280122	     -0.93119080	      0.21225449	      0.69742678	     -0.03016964	     60.96996803	     -0.37168275	      1.85795280	    -88.37870532	     29.83529144	      0.00000000	      0.00000000	     62.26675637	     -1.41847088	      1.88915376	    -91.01691768	     28.96376156	      0.00000000	      0.00000000	    -53.88790196	      0.21318117	      0.26209845
      0.93000000	      0.69584790	     -1.11416246	     -1.00616613	      0.21561121	      0.70437707	     -0.02994643	     60.04798075	     -0.27788669	      1.95913502	    -87.16469037	     29.59285809	      0.00000000	      0.00000000	     61.30708503	     -1.43629060	      1.87248278	    -89.80729781	     28.78666766	      0.00000000	      0.00000000	    -53.09151554	      0.20169041	      0.25242392
      0.94000000	      0.66018016	     -1.04046841	     -1.05072249	      0.21901043	      0.71186679	     -0.02976832	     58.93243688	     -0.22781096	      2.09728897	    -85.82701479	     29.42084164	      0.00000000	      0.00000000	     60.16858811	     -1.44815301	      1.76509014	    -88.48726657	     28.67492841	      0.00000000	      0.00000000	    -52.74253148	      0.09898689	      0.41199105
      0.95000000	      0.36529744	     -1.02298192	     -1.08304585	      0.22244028	      0.71888640	     -0.02956868	     58.10391961	     -0.14318346	      2.18615377	    -84.48394168	     29.17991434	      0.00000000	      0.00000000	     59.33819976	     -1.44933044	      1.78146371	    -87.16950678	     28.45511615	      0.00000000	      0.00000000	    -51.89993793	      0.10991207	      0.33448882
      0.96000000	      0.12482384	     -0.99234812	     -1.11457031	      0.22591263	      0.72608014	     -0.02936892	     57.20001006	     -0.07251365	      2.29093782	    -83.09305774	     28.91549752	      0.00000000	      0.00000000	     58.42837033	     -1.45034349	      1.77564955	    -85.81485876	     28.23075550	      0.00000000	      0.00000000	    -51.11251830	      0.09990468	      0.27081543
      0.97000000	      0.27567996	     -0.90356419	     -1.16993800	      0.22943920	      0.73400831	     -0.02921251	     55.85609372	     -0.05571694	      2.43297415	    -81.68184514	     28.69480861	      0.00000000	      0.00000000	     57.03967570	     -1.44428561	      1.65552583	    -84.37941583	     28.06575875	      0.00000000	      0.00000000	    -50.86528086	     -0.01126211	      0.38113701
